<svg width="32" height="32" viewBox="0 0 32 32" fill="none" xmlns="http://www.w3.org/2000/svg">
<path fill-rule="evenodd" clip-rule="evenodd" d="M16 31C24.2843 31 31 24.2843 31 16C31 7.71573 24.2843 1 16 1C7.71573 1 1 7.71573 1 16C1 24.2843 7.71573 31 16 31Z" fill="#FCFCFC" stroke="#888888" stroke-width="0.4"/>
<path fill-rule="evenodd" clip-rule="evenodd" d="M15.9993 15.175L19.0869 12.0875C19.3147 11.8597 19.684 11.8597 19.9118 12.0875C20.1396 12.3153 20.1396 12.6846 19.9118 12.9124L16.8243 16L19.9118 19.0875C20.1396 19.3153 20.1396 19.6846 19.9118 19.9124C19.684 20.1402 19.3147 20.1402 19.0869 19.9124L15.9993 16.8249L12.9118 19.9124C12.684 20.1402 12.3147 20.1402 12.0869 19.9124C11.8591 19.6846 11.8591 19.3153 12.0869 19.0875L15.1744 16L12.0869 12.9124C11.8591 12.6846 11.8591 12.3153 12.0869 12.0875C12.3147 11.8597 12.684 11.8597 12.9118 12.0875L15.9993 15.175Z" fill="#888888"/>
<mask id="mask0_1272_1802" style="mask-type:luminance" maskUnits="userSpaceOnUse" x="11" y="11" width="10" height="10">
<path fill-rule="evenodd" clip-rule="evenodd" d="M15.9993 15.175L19.0869 12.0875C19.3147 11.8597 19.684 11.8597 19.9118 12.0875C20.1396 12.3153 20.1396 12.6846 19.9118 12.9124L16.8243 16L19.9118 19.0875C20.1396 19.3153 20.1396 19.6846 19.9118 19.9124C19.684 20.1402 19.3147 20.1402 19.0869 19.9124L15.9993 16.8249L12.9118 19.9124C12.684 20.1402 12.3147 20.1402 12.0869 19.9124C11.8591 19.6846 11.8591 19.3153 12.0869 19.0875L15.1744 16L12.0869 12.9124C11.8591 12.6846 11.8591 12.3153 12.0869 12.0875C12.3147 11.8597 12.684 11.8597 12.9118 12.0875L15.9993 15.175Z" fill="white"/>
</mask>
<g mask="url(#mask0_1272_1802)">
</g>
</svg>
