<svg width="188" height="23" viewBox="0 0 188 23" fill="none" xmlns="http://www.w3.org/2000/svg">
<path d="M23.876 16.648C24.084 16.648 24.244 16.744 24.356 16.936C24.484 17.128 24.548 17.392 24.548 17.728C24.548 18.352 24.396 18.848 24.092 19.216C22.508 21.152 20.82 22.12 19.028 22.12C17.476 22.12 16.236 21.52 15.308 20.32C14.38 19.12 13.916 17.4 13.916 15.16C13.916 14.616 13.94 14.072 13.988 13.528C12.932 13.72 11.78 13.864 10.532 13.96C9.7 14.024 9.132 14.064 8.828 14.08C8.508 15.712 8.06 17.712 7.484 20.08C7.148 21.472 6.508 22.168 5.564 22.168C4.54 22.168 4.028 21.704 4.028 20.776C4.028 20.568 4.068 20.28 4.148 19.912C4.692 17.72 5.124 15.864 5.444 14.344L4.292 14.392C3.764 14.392 3.38 14.304 3.14 14.128C2.9 13.936 2.78 13.632 2.78 13.216C2.78 12.688 2.932 12.304 3.236 12.064C3.54 11.808 4.044 11.664 4.748 11.632L6.02 11.584C6.436 9.328 6.644 7.608 6.644 6.424C6.644 5.672 6.532 5.16 6.308 4.888C6.084 4.616 5.788 4.48 5.42 4.48C4.3 4.48 3.036 5.416 1.628 7.288C1.42 7.56 1.188 7.696 0.932 7.696C0.708 7.696 0.516 7.592 0.356 7.384C0.196 7.176 0.116 6.912 0.116 6.592C0.116 6.096 0.316 5.568 0.716 5.008C1.42 4.032 2.308 3.232 3.38 2.608C4.452 1.968 5.54 1.648 6.644 1.648C7.684 1.648 8.484 2.008 9.044 2.728C9.62 3.432 9.908 4.536 9.908 6.04C9.908 7.368 9.716 9.168 9.332 11.44L11.684 11.32C12.692 11.272 13.556 11.192 14.276 11.08C14.564 9.32 15.004 7.672 15.596 6.136C16.188 4.6 16.924 3.352 17.804 2.392C18.684 1.432 19.668 0.951999 20.756 0.951999C21.556 0.951999 22.188 1.272 22.652 1.912C23.116 2.536 23.348 3.36 23.348 4.384C23.348 8.352 21.324 11.104 17.276 12.64C17.228 13.28 17.204 13.944 17.204 14.632C17.204 16.312 17.412 17.504 17.828 18.208C18.244 18.912 18.828 19.264 19.58 19.264C20.236 19.264 20.836 19.096 21.38 18.76C21.924 18.408 22.54 17.816 23.228 16.984C23.42 16.76 23.636 16.648 23.876 16.648ZM20.636 3.04C20.284 3.04 19.908 3.36 19.508 4C19.124 4.64 18.756 5.512 18.404 6.616C18.052 7.72 17.772 8.928 17.564 10.24C18.844 9.712 19.788 8.96 20.396 7.984C21.004 7.008 21.308 5.752 21.308 4.216C21.308 3.848 21.244 3.56 21.116 3.352C20.988 3.144 20.828 3.04 20.636 3.04ZM37.9623 14.632C38.1703 14.632 38.3303 14.736 38.4423 14.944C38.5543 15.152 38.6103 15.416 38.6103 15.736C38.6103 16.504 38.3783 16.96 37.9143 17.104C36.9543 17.44 35.8983 17.632 34.7463 17.68C34.4423 19.024 33.8423 20.104 32.9463 20.92C32.0503 21.72 31.0343 22.12 29.8983 22.12C28.9383 22.12 28.1143 21.888 27.4263 21.424C26.7543 20.96 26.2423 20.344 25.8903 19.576C25.5383 18.808 25.3623 17.976 25.3623 17.08C25.3623 15.864 25.5943 14.784 26.0583 13.84C26.5223 12.88 27.1623 12.136 27.9783 11.608C28.7943 11.064 29.6983 10.792 30.6903 10.792C31.9063 10.792 32.8823 11.216 33.6183 12.064C34.3703 12.896 34.8103 13.928 34.9383 15.16C35.6903 15.112 36.5863 14.952 37.6263 14.68C37.7543 14.648 37.8663 14.632 37.9623 14.632ZM30.0903 19.576C30.6023 19.576 31.0423 19.368 31.4103 18.952C31.7943 18.536 32.0503 17.936 32.1783 17.152C31.6823 16.816 31.2983 16.376 31.0263 15.832C30.7703 15.288 30.6423 14.712 30.6423 14.104C30.6423 13.848 30.6663 13.592 30.7143 13.336H30.5943C29.9543 13.336 29.4183 13.648 28.9863 14.272C28.5703 14.88 28.3623 15.744 28.3623 16.864C28.3623 17.744 28.5303 18.416 28.8663 18.88C29.2183 19.344 29.6263 19.576 30.0903 19.576ZM38.2544 22.12C37.6464 22.12 37.2144 21.8 36.9584 21.16C36.7184 20.52 36.5984 19.496 36.5984 18.088C36.5984 16.008 36.8944 14.032 37.4864 12.16C37.6304 11.696 37.8624 11.36 38.1824 11.152C38.5184 10.928 38.9824 10.816 39.5744 10.816C39.8944 10.816 40.1184 10.856 40.2464 10.936C40.3744 11.016 40.4384 11.168 40.4384 11.392C40.4384 11.648 40.3184 12.224 40.0784 13.12C39.9184 13.76 39.7904 14.32 39.6944 14.8C39.5984 15.264 39.5184 15.848 39.4544 16.552C39.8864 15.304 40.3984 14.248 40.9904 13.384C41.5984 12.52 42.2144 11.88 42.8384 11.464C43.4784 11.032 44.0784 10.816 44.6384 10.816C45.1984 10.816 45.5904 10.944 45.8144 11.2C46.0544 11.456 46.1744 11.848 46.1744 12.376C46.1744 12.888 46.0224 13.816 45.7184 15.16C45.5904 15.736 45.5024 16.168 45.4544 16.456C46.2544 14.488 47.1424 13.056 48.1184 12.16C49.0944 11.264 50.0064 10.816 50.8544 10.816C51.8944 10.816 52.4144 11.336 52.4144 12.376C52.4144 13 52.2384 14.128 51.8864 15.76C51.5824 17.152 51.4304 18.072 51.4304 18.52C51.4304 19.16 51.6624 19.48 52.1264 19.48C52.4464 19.48 52.8224 19.288 53.2544 18.904C53.7024 18.504 54.2944 17.864 55.0304 16.984C55.2224 16.76 55.4384 16.648 55.6784 16.648C55.8864 16.648 56.0464 16.744 56.1584 16.936C56.2864 17.128 56.3504 17.392 56.3504 17.728C56.3504 18.368 56.1984 18.864 55.8944 19.216C55.2064 20.064 54.4624 20.76 53.6624 21.304C52.8784 21.848 51.9824 22.12 50.9744 22.12C50.1584 22.12 49.5424 21.888 49.1264 21.424C48.7104 20.944 48.5024 20.256 48.5024 19.36C48.5024 18.912 48.6144 18.112 48.8384 16.96C49.0464 15.952 49.1504 15.256 49.1504 14.872C49.1504 14.616 49.0624 14.488 48.8864 14.488C48.6784 14.488 48.3824 14.76 47.9984 15.304C47.6144 15.832 47.2304 16.536 46.8464 17.416C46.4624 18.296 46.1504 19.224 45.9104 20.2C45.7344 20.968 45.5264 21.48 45.2864 21.736C45.0624 21.992 44.6944 22.12 44.1824 22.12C43.6544 22.12 43.2544 21.872 42.9824 21.376C42.7264 20.864 42.5984 20.248 42.5984 19.528C42.5984 18.92 42.6784 18.04 42.8384 16.888C42.9664 15.864 43.0304 15.192 43.0304 14.872C43.0304 14.616 42.9424 14.488 42.7664 14.488C42.5264 14.488 42.2224 14.776 41.8544 15.352C41.4864 15.928 41.1264 16.664 40.7744 17.56C40.4384 18.456 40.1664 19.336 39.9584 20.2C39.7824 20.952 39.5744 21.464 39.3344 21.736C39.1104 21.992 38.7504 22.12 38.2544 22.12ZM65.1138 16.648C65.3218 16.648 65.4818 16.744 65.5938 16.936C65.7218 17.128 65.7858 17.392 65.7858 17.728C65.7858 18.368 65.6338 18.864 65.3298 19.216C64.7378 19.936 63.8978 20.6 62.8098 21.208C61.7378 21.816 60.5858 22.12 59.3538 22.12C57.6738 22.12 56.3698 21.664 55.4418 20.752C54.5138 19.84 54.0498 18.592 54.0498 17.008C54.0498 15.904 54.2818 14.88 54.7458 13.936C55.2098 12.976 55.8498 12.216 56.6658 11.656C57.4978 11.096 58.4338 10.816 59.4738 10.816C60.4018 10.816 61.1458 11.096 61.7058 11.656C62.2658 12.2 62.5458 12.944 62.5458 13.888C62.5458 14.992 62.1458 15.944 61.3458 16.744C60.5618 17.528 59.2258 18.152 57.3378 18.616C57.7378 19.352 58.4978 19.72 59.6178 19.72C60.3378 19.72 61.1538 19.472 62.0658 18.976C62.9938 18.464 63.7938 17.8 64.4658 16.984C64.6578 16.76 64.8738 16.648 65.1138 16.648ZM59.0658 13.168C58.4738 13.168 57.9698 13.512 57.5538 14.2C57.1538 14.888 56.9538 15.72 56.9538 16.696V16.744C57.8978 16.52 58.6418 16.184 59.1858 15.736C59.7298 15.288 60.0018 14.768 60.0018 14.176C60.0018 13.872 59.9138 13.632 59.7378 13.456C59.5778 13.264 59.3538 13.168 59.0658 13.168ZM70.5277 22.192C68.3997 22.192 66.6957 21.792 65.4157 20.992C64.1357 20.176 63.4957 18.936 63.4957 17.272C63.4957 16.392 63.6477 15.72 63.9517 15.256C64.2557 14.792 64.7037 14.56 65.2957 14.56C65.7277 14.56 66.0797 14.672 66.3517 14.896C66.6237 15.12 66.7597 15.408 66.7597 15.76C66.7597 16.08 66.7357 16.36 66.6877 16.6C66.6877 16.664 66.6717 16.776 66.6397 16.936C66.6237 17.096 66.6157 17.264 66.6157 17.44C66.6157 18.16 66.9757 18.696 67.6957 19.048C68.4317 19.4 69.4557 19.576 70.7677 19.576C72.1277 19.576 73.1917 19.336 73.9597 18.856C74.7277 18.36 75.1117 17.672 75.1117 16.792C75.1117 16.248 74.9357 15.784 74.5837 15.4C74.2317 15 73.7917 14.672 73.2637 14.416C72.7357 14.144 71.9917 13.816 71.0317 13.432C69.7997 12.952 68.7917 12.496 68.0077 12.064C67.2397 11.632 66.5757 11.048 66.0157 10.312C65.4717 9.56 65.1997 8.632 65.1997 7.528C65.1997 6.376 65.5037 5.352 66.1117 4.456C66.7357 3.56 67.6237 2.864 68.7757 2.368C69.9437 1.872 71.3117 1.624 72.8797 1.624C74.0477 1.624 75.1197 1.8 76.0957 2.152C77.0717 2.488 77.8477 3.008 78.4237 3.712C79.0157 4.416 79.3117 5.28 79.3117 6.304C79.3117 7.312 79.1597 8.072 78.8557 8.584C78.5517 9.096 78.1037 9.352 77.5117 9.352C77.0957 9.352 76.7437 9.224 76.4557 8.968C76.1837 8.712 76.0477 8.408 76.0477 8.056C76.0477 7.752 76.0717 7.472 76.1197 7.216C76.1677 6.736 76.1917 6.432 76.1917 6.304C76.1917 5.632 75.8637 5.12 75.2077 4.768C74.5517 4.416 73.7357 4.24 72.7597 4.24C71.3837 4.24 70.3277 4.496 69.5917 5.008C68.8717 5.504 68.5117 6.208 68.5117 7.12C68.5117 7.728 68.6957 8.248 69.0637 8.68C69.4477 9.112 69.9197 9.472 70.4797 9.76C71.0397 10.048 71.8237 10.392 72.8317 10.792C74.0477 11.288 75.0237 11.736 75.7597 12.136C76.4957 12.536 77.1197 13.08 77.6317 13.768C78.1597 14.456 78.4237 15.304 78.4237 16.312C78.4237 18.2 77.7037 19.656 76.2637 20.68C74.8397 21.688 72.9277 22.192 70.5277 22.192ZM98.2591 14.704C98.3071 14.688 98.3871 14.68 98.4991 14.68C98.7391 14.68 98.9231 14.76 99.0511 14.92C99.1791 15.08 99.2431 15.296 99.2431 15.568C99.2431 16.064 99.1471 16.456 98.9551 16.744C98.7631 17.016 98.4751 17.216 98.0911 17.344C97.3551 17.584 96.5711 17.704 95.7391 17.704C95.0351 17.704 94.3711 17.608 93.7471 17.416C93.2831 18.168 92.7711 18.944 92.2111 19.744C91.5711 20.656 91.0191 21.28 90.5551 21.616C90.1071 21.952 89.5951 22.12 89.0191 22.12C88.3791 22.12 87.8911 21.872 87.5551 21.376C87.2351 20.88 87.0351 20.064 86.9551 18.928L86.8351 17.176C86.3391 18.52 85.8911 19.544 85.4911 20.248C85.1071 20.952 84.7151 21.44 84.3151 21.712C83.9311 21.984 83.4751 22.12 82.9471 22.12C82.2911 22.12 81.7711 21.864 81.3871 21.352C81.0191 20.84 80.7871 20.032 80.6911 18.928C80.4991 16.688 80.4031 14.728 80.4031 13.048V12.208C80.4191 11.68 80.5631 11.312 80.8351 11.104C81.1071 10.896 81.5151 10.792 82.0591 10.792C82.4751 10.792 82.7791 10.888 82.9711 11.08C83.1791 11.256 83.2831 11.56 83.2831 11.992C83.2831 13.832 83.3951 16.224 83.6191 19.168C84.7071 16.88 85.7071 14.496 86.6191 12.016C86.7951 11.536 87.0031 11.216 87.2431 11.056C87.4991 10.88 87.8031 10.792 88.1551 10.792C88.5871 10.792 88.8831 10.88 89.0431 11.056C89.2191 11.232 89.3071 11.544 89.3071 11.992C89.3071 13.832 89.4191 16.224 89.6431 19.168C90.6031 17.744 91.3231 16.608 91.8031 15.76C91.5631 15.296 91.4431 14.744 91.4431 14.104C91.4431 13.56 91.5631 13.032 91.8031 12.52C92.0431 12.008 92.3711 11.592 92.7871 11.272C93.2031 10.952 93.6751 10.792 94.2031 10.792C94.6671 10.792 95.0431 10.96 95.3311 11.296C95.6191 11.616 95.7631 12.088 95.7631 12.712C95.7631 13.432 95.5711 14.256 95.1871 15.184C95.7951 15.152 96.6031 15.032 97.6111 14.824L98.2591 14.704ZM107.864 16.648C108.072 16.648 108.232 16.744 108.344 16.936C108.472 17.128 108.536 17.392 108.536 17.728C108.536 18.368 108.384 18.864 108.08 19.216C107.488 19.936 106.648 20.6 105.56 21.208C104.488 21.816 103.336 22.12 102.104 22.12C100.424 22.12 99.1198 21.664 98.1918 20.752C97.2638 19.84 96.7998 18.592 96.7998 17.008C96.7998 15.904 97.0318 14.88 97.4958 13.936C97.9598 12.976 98.5998 12.216 99.4158 11.656C100.248 11.096 101.184 10.816 102.224 10.816C103.152 10.816 103.896 11.096 104.456 11.656C105.016 12.2 105.296 12.944 105.296 13.888C105.296 14.992 104.896 15.944 104.096 16.744C103.312 17.528 101.976 18.152 100.088 18.616C100.488 19.352 101.248 19.72 102.368 19.72C103.088 19.72 103.904 19.472 104.816 18.976C105.744 18.464 106.544 17.8 107.216 16.984C107.408 16.76 107.624 16.648 107.864 16.648ZM101.816 13.168C101.224 13.168 100.72 13.512 100.304 14.2C99.9038 14.888 99.7038 15.72 99.7038 16.696V16.744C100.648 16.52 101.392 16.184 101.936 15.736C102.48 15.288 102.752 14.768 102.752 14.176C102.752 13.872 102.664 13.632 102.488 13.456C102.328 13.264 102.104 13.168 101.816 13.168ZM117.286 16.648C117.494 16.648 117.654 16.744 117.766 16.936C117.894 17.128 117.958 17.392 117.958 17.728C117.958 18.368 117.806 18.864 117.502 19.216C116.91 19.936 116.07 20.6 114.982 21.208C113.91 21.816 112.758 22.12 111.526 22.12C109.846 22.12 108.542 21.664 107.614 20.752C106.686 19.84 106.222 18.592 106.222 17.008C106.222 15.904 106.454 14.88 106.918 13.936C107.382 12.976 108.022 12.216 108.838 11.656C109.67 11.096 110.606 10.816 111.646 10.816C112.574 10.816 113.318 11.096 113.878 11.656C114.438 12.2 114.718 12.944 114.718 13.888C114.718 14.992 114.318 15.944 113.518 16.744C112.734 17.528 111.398 18.152 109.51 18.616C109.91 19.352 110.67 19.72 111.79 19.72C112.51 19.72 113.326 19.472 114.238 18.976C115.166 18.464 115.966 17.8 116.638 16.984C116.83 16.76 117.046 16.648 117.286 16.648ZM111.238 13.168C110.646 13.168 110.142 13.512 109.726 14.2C109.326 14.888 109.126 15.72 109.126 16.696V16.744C110.07 16.52 110.814 16.184 111.358 15.736C111.902 15.288 112.174 14.768 112.174 14.176C112.174 13.872 112.086 13.632 111.91 13.456C111.75 13.264 111.526 13.168 111.238 13.168ZM126.708 16.648C126.916 16.648 127.076 16.744 127.188 16.936C127.316 17.128 127.38 17.392 127.38 17.728C127.38 18.368 127.228 18.864 126.924 19.216C126.236 20.064 125.484 20.76 124.668 21.304C123.852 21.848 122.916 22.12 121.86 22.12C118.596 22.12 116.964 19.824 116.964 15.232C116.964 14.528 116.988 13.816 117.036 13.096H116.1C115.62 13.096 115.292 13.008 115.116 12.832C114.956 12.656 114.876 12.376 114.876 11.992C114.876 11.096 115.236 10.648 115.956 10.648H117.324C117.596 8.888 118.012 7.28 118.572 5.824C119.132 4.368 119.804 3.208 120.588 2.344C121.388 1.48 122.244 1.048 123.156 1.048C123.828 1.048 124.356 1.344 124.74 1.936C125.124 2.528 125.316 3.272 125.316 4.168C125.316 6.648 124.276 8.808 122.196 10.648H124.884C125.14 10.648 125.324 10.704 125.436 10.816C125.548 10.928 125.604 11.136 125.604 11.44C125.604 12.544 124.7 13.096 122.892 13.096H119.964C119.932 13.896 119.916 14.52 119.916 14.968C119.916 16.632 120.108 17.8 120.492 18.472C120.892 19.144 121.516 19.48 122.364 19.48C123.052 19.48 123.66 19.272 124.188 18.856C124.716 18.44 125.34 17.816 126.06 16.984C126.252 16.76 126.468 16.648 126.708 16.648ZM122.508 3.352C122.268 3.352 121.996 3.656 121.692 4.264C121.404 4.856 121.124 5.688 120.852 6.76C120.596 7.816 120.38 8.992 120.204 10.288C121.148 9.472 121.852 8.56 122.316 7.552C122.796 6.528 123.036 5.6 123.036 4.768C123.036 3.824 122.86 3.352 122.508 3.352ZM147.649 16.648C147.857 16.648 148.017 16.744 148.129 16.936C148.257 17.128 148.321 17.392 148.321 17.728C148.321 18.352 148.169 18.848 147.865 19.216C146.281 21.152 144.593 22.12 142.801 22.12C141.249 22.12 140.009 21.52 139.081 20.32C138.153 19.12 137.689 17.4 137.689 15.16C137.689 14.616 137.713 14.072 137.761 13.528C136.705 13.72 135.553 13.864 134.305 13.96C133.473 14.024 132.905 14.064 132.601 14.08C132.281 15.712 131.833 17.712 131.257 20.08C130.921 21.472 130.281 22.168 129.337 22.168C128.313 22.168 127.801 21.704 127.801 20.776C127.801 20.568 127.841 20.28 127.921 19.912C128.465 17.72 128.897 15.864 129.217 14.344L128.065 14.392C127.537 14.392 127.153 14.304 126.913 14.128C126.673 13.936 126.553 13.632 126.553 13.216C126.553 12.688 126.705 12.304 127.009 12.064C127.313 11.808 127.817 11.664 128.521 11.632L129.793 11.584C130.209 9.328 130.417 7.608 130.417 6.424C130.417 5.672 130.305 5.16 130.081 4.888C129.857 4.616 129.561 4.48 129.193 4.48C128.073 4.48 126.809 5.416 125.401 7.288C125.193 7.56 124.961 7.696 124.705 7.696C124.481 7.696 124.289 7.592 124.129 7.384C123.969 7.176 123.889 6.912 123.889 6.592C123.889 6.096 124.089 5.568 124.489 5.008C125.193 4.032 126.081 3.232 127.153 2.608C128.225 1.968 129.313 1.648 130.417 1.648C131.457 1.648 132.257 2.008 132.817 2.728C133.393 3.432 133.681 4.536 133.681 6.04C133.681 7.368 133.489 9.168 133.105 11.44L135.457 11.32C136.465 11.272 137.329 11.192 138.049 11.08C138.337 9.32 138.777 7.672 139.369 6.136C139.961 4.6 140.697 3.352 141.577 2.392C142.457 1.432 143.441 0.951999 144.529 0.951999C145.329 0.951999 145.961 1.272 146.425 1.912C146.889 2.536 147.121 3.36 147.121 4.384C147.121 8.352 145.097 11.104 141.049 12.64C141.001 13.28 140.977 13.944 140.977 14.632C140.977 16.312 141.185 17.504 141.601 18.208C142.017 18.912 142.601 19.264 143.353 19.264C144.009 19.264 144.609 19.096 145.153 18.76C145.697 18.408 146.313 17.816 147.001 16.984C147.193 16.76 147.409 16.648 147.649 16.648ZM144.409 3.04C144.057 3.04 143.681 3.36 143.281 4C142.897 4.64 142.529 5.512 142.177 6.616C141.825 7.72 141.545 8.928 141.337 10.24C142.617 9.712 143.561 8.96 144.169 7.984C144.777 7.008 145.081 5.752 145.081 4.216C145.081 3.848 145.017 3.56 144.889 3.352C144.761 3.144 144.601 3.04 144.409 3.04ZM161.736 14.632C161.944 14.632 162.104 14.736 162.216 14.944C162.328 15.152 162.384 15.416 162.384 15.736C162.384 16.504 162.152 16.96 161.688 17.104C160.728 17.44 159.672 17.632 158.52 17.68C158.216 19.024 157.616 20.104 156.72 20.92C155.824 21.72 154.808 22.12 153.672 22.12C152.712 22.12 151.888 21.888 151.2 21.424C150.528 20.96 150.016 20.344 149.664 19.576C149.312 18.808 149.136 17.976 149.136 17.08C149.136 15.864 149.368 14.784 149.832 13.84C150.296 12.88 150.936 12.136 151.752 11.608C152.568 11.064 153.472 10.792 154.464 10.792C155.68 10.792 156.656 11.216 157.392 12.064C158.144 12.896 158.584 13.928 158.712 15.16C159.464 15.112 160.36 14.952 161.4 14.68C161.528 14.648 161.64 14.632 161.736 14.632ZM153.864 19.576C154.376 19.576 154.816 19.368 155.184 18.952C155.568 18.536 155.824 17.936 155.952 17.152C155.456 16.816 155.072 16.376 154.8 15.832C154.544 15.288 154.416 14.712 154.416 14.104C154.416 13.848 154.44 13.592 154.488 13.336H154.368C153.728 13.336 153.192 13.648 152.76 14.272C152.344 14.88 152.136 15.744 152.136 16.864C152.136 17.744 152.304 18.416 152.64 18.88C152.992 19.344 153.4 19.576 153.864 19.576ZM162.028 22.12C161.42 22.12 160.988 21.8 160.732 21.16C160.492 20.52 160.372 19.496 160.372 18.088C160.372 16.008 160.668 14.032 161.26 12.16C161.404 11.696 161.636 11.36 161.956 11.152C162.292 10.928 162.756 10.816 163.348 10.816C163.668 10.816 163.892 10.856 164.02 10.936C164.148 11.016 164.212 11.168 164.212 11.392C164.212 11.648 164.092 12.224 163.852 13.12C163.692 13.76 163.564 14.32 163.468 14.8C163.372 15.264 163.292 15.848 163.228 16.552C163.66 15.304 164.172 14.248 164.764 13.384C165.372 12.52 165.988 11.88 166.612 11.464C167.252 11.032 167.852 10.816 168.412 10.816C168.972 10.816 169.364 10.944 169.588 11.2C169.828 11.456 169.948 11.848 169.948 12.376C169.948 12.888 169.796 13.816 169.492 15.16C169.364 15.736 169.276 16.168 169.228 16.456C170.028 14.488 170.916 13.056 171.892 12.16C172.868 11.264 173.78 10.816 174.628 10.816C175.668 10.816 176.188 11.336 176.188 12.376C176.188 13 176.012 14.128 175.66 15.76C175.356 17.152 175.204 18.072 175.204 18.52C175.204 19.16 175.436 19.48 175.9 19.48C176.22 19.48 176.596 19.288 177.028 18.904C177.476 18.504 178.068 17.864 178.804 16.984C178.996 16.76 179.212 16.648 179.452 16.648C179.66 16.648 179.82 16.744 179.932 16.936C180.06 17.128 180.124 17.392 180.124 17.728C180.124 18.368 179.972 18.864 179.668 19.216C178.98 20.064 178.236 20.76 177.436 21.304C176.652 21.848 175.756 22.12 174.748 22.12C173.932 22.12 173.316 21.888 172.9 21.424C172.484 20.944 172.276 20.256 172.276 19.36C172.276 18.912 172.388 18.112 172.612 16.96C172.82 15.952 172.924 15.256 172.924 14.872C172.924 14.616 172.836 14.488 172.66 14.488C172.452 14.488 172.156 14.76 171.772 15.304C171.388 15.832 171.004 16.536 170.62 17.416C170.236 18.296 169.924 19.224 169.684 20.2C169.508 20.968 169.3 21.48 169.06 21.736C168.836 21.992 168.468 22.12 167.956 22.12C167.428 22.12 167.028 21.872 166.756 21.376C166.5 20.864 166.372 20.248 166.372 19.528C166.372 18.92 166.452 18.04 166.612 16.888C166.74 15.864 166.804 15.192 166.804 14.872C166.804 14.616 166.716 14.488 166.54 14.488C166.3 14.488 165.996 14.776 165.628 15.352C165.26 15.928 164.9 16.664 164.548 17.56C164.212 18.456 163.94 19.336 163.732 20.2C163.556 20.952 163.348 21.464 163.108 21.736C162.884 21.992 162.524 22.12 162.028 22.12ZM186.775 17.368C186.983 17.368 187.143 17.464 187.255 17.656C187.383 17.848 187.447 18.112 187.447 18.448C187.447 19.024 187.311 19.52 187.039 19.936C186.591 20.624 185.999 21.16 185.263 21.544C184.543 21.928 183.679 22.12 182.671 22.12C181.135 22.12 179.943 21.664 179.095 20.752C178.247 19.824 177.823 18.576 177.823 17.008C177.823 15.904 178.055 14.88 178.519 13.936C178.983 12.976 179.623 12.216 180.439 11.656C181.271 11.096 182.207 10.816 183.247 10.816C184.175 10.816 184.919 11.096 185.479 11.656C186.039 12.2 186.319 12.944 186.319 13.888C186.319 14.992 185.919 15.944 185.119 16.744C184.335 17.528 182.991 18.152 181.087 18.616C181.471 19.352 182.119 19.72 183.031 19.72C183.687 19.72 184.223 19.568 184.639 19.264C185.071 18.96 185.567 18.448 186.127 17.728C186.319 17.488 186.535 17.368 186.775 17.368ZM182.839 13.168C182.247 13.168 181.743 13.512 181.327 14.2C180.927 14.888 180.727 15.72 180.727 16.696V16.744C181.671 16.52 182.415 16.184 182.959 15.736C183.503 15.288 183.775 14.768 183.775 14.176C183.775 13.872 183.687 13.632 183.511 13.456C183.351 13.264 183.127 13.168 182.839 13.168Z" fill="#040200"/>
</svg>
