<svg width="28" height="28" viewBox="0 0 28 28" fill="none" xmlns="http://www.w3.org/2000/svg">
<path fill-rule="evenodd" clip-rule="evenodd" d="M14.8401 1.51507L18.7064 9.175L26.148 9.91222C26.5097 9.94228 26.8209 10.18 26.945 10.5211C27.0692 10.8622 26.9835 11.2444 26.7257 11.4999L20.6015 17.5698L22.8721 25.8179C22.967 26.1753 22.8434 26.5551 22.5564 26.7882C22.2694 27.0213 21.8724 27.0644 21.5421 26.8983L13.9977 23.1625L6.4637 26.8937C6.13337 27.0598 5.73633 27.0167 5.44934 26.7836C5.16236 26.5504 5.03881 26.1707 5.1337 25.8133L7.4043 17.5652L1.27543 11.4953C1.01761 11.2398 0.931977 10.8576 1.05611 10.5165C1.18023 10.1754 1.49144 9.93766 1.85319 9.90759L9.29472 9.17037L13.1553 1.51507C13.3172 1.1989 13.6425 1 13.9977 1C14.3529 1 14.6782 1.1989 14.8401 1.51507Z" stroke="#B3B3B3" stroke-width="1.2" stroke-linecap="round" stroke-linejoin="round"/>
</svg>
